<?xml version="1.0" encoding="UTF-8"?>
<svg version="1.1" xmlns="http://www.w3.org/2000/svg" width="64" height="64" viewBox="0 0 303 169">
<path d="M0 0 C4.73960625 4.10765875 8.14221867 7.65019014 9 14 C5.44623692 14 4.42927947 13.17115082 1.5 11.25 C-11.37234851 3.46757726 -23.9562234 2.14585073 -38.72265625 4.625 C-54.89536327 9.02680604 -66.47472334 20.24909935 -77.8125 31.90625 C-88.95882566 43.34052355 -100.88938071 55.02907938 -116 61 C-116.71285156 61.31453125 -117.42570312 61.6290625 -118.16015625 61.953125 C-130.48034274 66.60225198 -146.16736444 65.2157012 -158 60 C-167.32805246 55.59372259 -174.70281965 49.24780889 -182.34228516 42.46484375 C-188.89471668 36.67477171 -195.3407237 31.46299528 -203.1015625 27.38671875 C-205 26 -205 26 -205.8359375 23.89453125 C-205.89007813 23.26933594 -205.94421875 22.64414063 -206 22 C-205 21 -205 21 -203.20703125 20.875 C-190.44975201 21.54095911 -180.67787493 29.01469472 -170.98217773 36.57299805 C-159.05668713 45.7369791 -146.29139773 51.36191705 -131 50 C-117.15601938 47.27043121 -106.66056986 40.1401672 -96.69140625 30.55078125 C-94 28 -94 28 -91.3515625 25.8984375 C-89.19267173 24.15554561 -87.55873691 22.4537725 -85.8125 20.3125 C-64.17003554 -4.76675066 -30.16325543 -18.92806895 0 0 Z " fill="#FED145" transform="translate(272,69)"/>
<path d="M0 0 C4.53995732 4.13054233 7.44664304 9.24712814 9.8125 14.875 C9.8125 15.865 9.8125 16.855 9.8125 17.875 C6.14573912 17.31457803 4.80960456 16.02997774 2.4375 13.25 C-4.43480033 6.05353456 -14.74121257 0.89538902 -24.75 0.63671875 C-34.87367852 0.42942705 -43.87274628 0.41168051 -53.1875 4.875 C-54.115625 5.31070313 -55.04375 5.74640625 -56 6.1953125 C-62.74349451 9.62325554 -68.47601165 13.94565814 -74.1875 18.875 C-74.97640625 19.55304688 -75.7653125 20.23109375 -76.578125 20.9296875 C-80.855343 24.69639883 -84.93174798 28.60668633 -88.90917969 32.68457031 C-100.0341161 44.05920996 -114.09629024 56.74366088 -130.66796875 58.17578125 C-149.280581 58.23461986 -160.79756603 51.91524761 -174.69970703 40.13623047 C-183.57174672 32.71687625 -192.9441318 26.97661881 -204.1875 23.875 C-203.8125 21.4375 -203.8125 21.4375 -203.1875 18.875 C-198.08388971 16.32319486 -191.81060854 17.73939579 -186.5625 19.25 C-178.6219857 22.09602617 -171.99087947 26.99830974 -165.1875 31.875 C-153.50781625 40.21312781 -144.91141577 45.02817842 -130.1875 43.875 C-115.98735731 40.88248671 -104.68859418 29.61209295 -94.90625 19.5078125 C-70.60153475 -5.56907495 -31.72392834 -25.02000386 0 0 Z " fill="#55C77A" transform="translate(270.1875,47.125)"/>
<path d="M0 0 C3.49078013 3.22706314 3.49078013 3.22706314 4.65234375 5.19140625 C4.3203125 7.40234375 4.3203125 7.40234375 3.65234375 9.19140625 C-1.12354233 8.16633802 -5.54217297 6.16691708 -10.05859375 4.34765625 C-22.56977903 -0.05057515 -35.07254882 1.90184661 -46.8984375 7.37109375 C-57.37627698 13.16734538 -66.41282248 21.82439241 -74.34765625 30.69140625 C-88.03246623 45.95918624 -105.88670784 61.30552013 -127.1484375 62.66796875 C-142.05992384 63.20591625 -152.64091791 61.32630929 -164.60546875 52.03515625 C-166.6187941 49.90446216 -167.42989619 47.95414789 -168.34765625 45.19140625 C-165.62623481 44.12734336 -164.49167068 44.14136018 -161.68359375 45.1171875 C-160.70648438 45.57480469 -159.729375 46.03242188 -158.72265625 46.50390625 C-148.00744608 51.19669903 -137.94961668 52.4999437 -126.53515625 49.56640625 C-125.84156006 49.38891846 -125.14796387 49.21143066 -124.43334961 49.02856445 C-106.99985548 44.2721406 -93.7009459 30.80822386 -81.4140625 18.17578125 C-59.92152152 -3.9207595 -28.743604 -22.14357513 0 0 Z " fill="#FE7338" transform="translate(277.34765625,94.80859375)"/>
</svg>
